
<svg version="1.0" xmlns="http://www.w3.org/2000/svg"
 width="512.000000pt" height="512.000000pt" viewBox="0 0 512.000000 512.000000"
 preserveAspectRatio="xMidYMid meet">

<g transform="translate(0.000000,512.000000) scale(0.100000,-0.100000)"
fill="#000000" stroke="none">
<path d="M480 4959 c0 -100 21 -238 51 -334 40 -131 96 -231 307 -547 l212
-318 -101 0 c-56 0 -120 -5 -143 -12 -55 -16 -138 -99 -154 -154 -9 -31 -12
-220 -12 -737 l0 -695 -162 -4 c-148 -4 -168 -6 -213 -28 -64 -31 -124 -91
-155 -155 -20 -41 -24 -66 -24 -135 0 -90 14 -132 71 -208 l24 -32 -24 -33
c-55 -72 -71 -118 -71 -202 -1 -91 23 -157 76 -212 l30 -31 -27 -29 c-14 -15
-38 -50 -53 -78 -22 -43 -26 -62 -26 -135 0 -90 14 -132 71 -207 l24 -33 -24
-32 c-57 -76 -71 -118 -71 -208 0 -72 4 -93 26 -136 39 -75 70 -107 140 -145
l63 -34 1415 0 c1357 0 1417 1 1470 19 92 31 167 76 228 136 l58 58 28 -44
c35 -56 96 -106 172 -141 l59 -28 496 0 495 0 76 37 c91 45 147 103 191 196
l32 67 0 815 0 815 -32 67 c-17 37 -50 87 -73 112 -52 56 -160 112 -235 121
l-55 7 0 135 c0 75 -5 153 -12 175 -14 48 -76 121 -118 138 l-30 12 0 386 c0
268 -4 397 -12 424 -6 22 -31 62 -55 88 -57 64 -106 80 -240 80 l-103 0 212
318 c211 316 267 416 307 547 29 91 51 240 51 339 l0 79 -137 -6 c-279 -12
-392 -68 -483 -238 -38 -72 -60 -83 -151 -76 -92 6 -141 33 -256 138 -106 96
-196 150 -281 168 -114 24 -237 7 -335 -47 -28 -15 -98 -69 -156 -121 -133
-118 -169 -136 -281 -136 -113 0 -150 18 -285 139 -159 142 -260 184 -415 173
-139 -9 -212 -46 -364 -186 -106 -96 -152 -120 -243 -128 -96 -7 -111 2 -165
94 -53 91 -84 122 -154 157 -77 39 -165 56 -316 63 l-138 6 0 -84z m330 -109
c73 -21 114 -56 150 -130 36 -73 56 -94 109 -124 99 -54 256 -45 381 20 36 19
108 73 163 123 127 117 166 136 277 136 112 0 163 -25 293 -143 159 -146 281
-190 453 -165 106 15 181 57 300 165 135 123 174 142 289 143 114 0 149 -16
271 -126 166 -151 233 -183 394 -183 91 -1 111 2 149 23 56 29 86 62 121 131
35 68 73 105 129 125 51 18 168 38 180 31 22 -14 -38 -246 -91 -349 -16 -33
-135 -218 -265 -413 l-236 -354 -1317 0 -1317 0 -236 354 c-130 195 -249 380
-265 413 -50 98 -112 330 -93 348 8 9 89 -4 161 -25z m3485 -1275 c24 -23 25
-29 25 -160 l0 -135 -1760 0 -1760 0 0 135 c0 131 1 137 25 160 l24 25 1711 0
1711 0 24 -25z m25 -615 l0 -160 -136 0 c-76 0 -154 -5 -176 -12 -48 -14 -121
-76 -138 -117 l-12 -30 -251 -3 c-244 -3 -254 -4 -302 -28 -96 -47 -165 -140
-180 -243 l-7 -47 80 0 80 0 6 35 c8 43 50 94 93 111 24 10 88 14 248 14 l215
0 0 -79 0 -79 -54 -6 c-149 -19 -287 -140 -330 -290 l-12 -40 -39 35 c-50 45
-114 82 -191 111 l-59 23 -1177 3 -1178 2 0 480 0 480 1760 0 1760 0 0 -160z
m135 -345 c24 -23 25 -29 25 -160 l0 -135 -240 0 -240 0 0 135 c0 131 1 137
25 160 24 25 26 25 215 25 189 0 191 0 215 -25z m259 -467 c55 -16 138 -99
154 -154 7 -26 12 -108 12 -218 l0 -176 -84 0 -84 0 -6 34 c-21 110 -135 255
-244 310 -190 96 -400 65 -554 -82 -60 -57 -121 -161 -134 -228 l-6 -34 -84 0
-84 0 0 176 c0 110 5 192 12 218 15 51 99 137 148 153 52 16 899 17 954 1z
m-1502 -190 c91 -45 147 -103 191 -196 29 -61 32 -76 32 -162 0 -86 -3 -101
-32 -162 -44 -93 -100 -151 -191 -196 l-76 -37 -1397 0 c-1396 0 -1398 0
-1425 21 -53 39 -69 71 -69 134 0 63 16 95 69 134 27 21 32 21 1337 24 l1309
2 0 80 0 80 -1295 0 c-1416 0 -1335 -3 -1388 59 -66 79 -36 206 58 247 25 11
277 13 1416 11 l1385 -2 76 -37z m1179 -159 c106 -57 158 -144 167 -276 l5
-83 158 0 159 0 0 -240 0 -240 -640 0 -640 0 0 240 0 240 159 0 158 0 5 83 c6
98 34 163 93 222 100 100 249 121 376 54z m-951 -680 l0 -81 -47 35 c-26 19
-49 39 -50 44 -3 8 82 83 94 83 1 0 3 -36 3 -81z m-228 -121 c91 -45 147 -103
191 -196 29 -61 32 -76 32 -162 0 -86 -3 -101 -32 -162 -44 -93 -100 -151
-191 -196 l-76 -37 -1397 0 c-1396 0 -1398 0 -1425 21 -53 39 -69 71 -69 134
0 63 16 95 69 134 27 21 32 21 1337 24 l1309 2 0 80 0 80 -1295 0 c-1416 0
-1335 -3 -1388 59 -66 79 -36 206 58 247 25 11 277 13 1416 11 l1385 -2 76
-37z m1668 -374 c0 -110 -5 -192 -12 -218 -16 -55 -99 -138 -154 -154 -58 -17
-890 -17 -948 0 -55 16 -138 99 -154 154 -7 26 -12 108 -12 218 l0 176 640 0
640 0 0 -176z"/>
</g>
</svg>
