<?xml version="1.0" standalone="no"?>
<!DOCTYPE svg PUBLIC "-//W3C//DTD SVG 20010904//EN"
 "http://www.w3.org/TR/2001/REC-SVG-20010904/DTD/svg10.dtd">
<svg version="1.0" xmlns="http://www.w3.org/2000/svg"
 width="128.000000pt" height="128.000000pt" viewBox="0 0 128.000000 128.000000"
 preserveAspectRatio="xMidYMid meet">

<g transform="translate(0.000000,128.000000) scale(0.100000,-0.100000)"
fill="#000000" stroke="none">
<path d="M763 1221 c-10 -11 -29 -46 -41 -79 -23 -57 -25 -59 -59 -58 -32 1
-41 -6 -91 -64 -30 -36 -74 -89 -99 -117 l-44 -53 -133 0 c-175 0 -166 10
-166 -189 l0 -151 -25 -10 c-50 -19 -65 -63 -65 -192 0 -114 1 -117 26 -137
18 -14 41 -21 70 -21 l44 0 0 -40 0 -40 -56 0 c-40 0 -55 -3 -51 -12 3 -10
125 -13 567 -13 442 0 564 3 568 13 3 9 -12 12 -52 12 l-56 0 0 40 0 40 44 0
c29 0 52 7 70 21 25 20 26 23 26 135 0 129 -11 164 -60 189 l-30 16 0 153 c0
196 10 186 -174 186 l-137 0 7 59 c8 72 1 105 -25 117 -20 9 -19 11 9 79 35
82 36 89 10 115 -25 25 -54 26 -77 1z m64 -27 c6 -18 -45 -144 -59 -144 -5 0
-18 5 -28 10 -19 10 -19 11 1 58 12 26 25 57 30 70 10 25 47 30 56 6z m-85
-166 c42 -17 79 -36 81 -42 2 -6 1 -23 -2 -37 l-6 -26 -107 45 -107 45 17 23
c22 31 33 30 124 -8z m-72 -74 c47 -20 99 -41 116 -49 l31 -13 -13 -97 c-7
-53 -14 -98 -17 -101 -2 -2 -20 3 -41 11 -36 15 -36 16 -21 45 18 36 19 40 1
40 -7 0 -19 -13 -26 -30 -14 -34 -19 -36 -45 -16 -17 13 -18 15 -2 55 20 48
21 61 6 61 -5 0 -19 -22 -31 -49 -19 -47 -21 -49 -45 -38 -17 7 -23 16 -19 29
3 10 9 27 12 38 10 31 -14 24 -31 -10 -9 -16 -17 -30 -19 -30 -16 0 -66 24
-66 32 0 8 117 158 123 158 2 0 41 -16 87 -36z m-236 -138 c6 -8 87 -47 181
-86 124 -53 173 -70 185 -63 9 6 19 37 25 84 l10 74 120 3 c181 4 165 20 165
-163 l0 -155 -40 0 c-38 0 -40 2 -40 29 0 16 -4 41 -10 55 l-10 26 -133 0
c-90 0 -137 -4 -145 -12 -7 -7 -12 -31 -12 -55 l0 -43 -90 0 -90 0 0 43 c0 24
-5 48 -12 55 -8 8 -55 12 -145 12 l-133 0 -10 -26 c-6 -14 -10 -39 -10 -55 0
-27 -2 -29 -40 -29 l-40 0 0 148 c0 102 4 152 12 160 18 18 247 16 262 -2z
m86 -266 l0 -41 -122 3 -123 3 -3 38 -3 37 125 0 126 0 0 -40z m488 3 l-3 -38
-122 -3 -123 -3 0 41 0 40 126 0 125 0 -3 -37z m147 -77 c45 -19 55 -42 55
-125 l0 -71 -570 0 -570 0 0 71 c0 82 10 106 53 124 48 21 982 21 1032 1z m55
-249 c0 -13 -5 -28 -12 -35 -17 -17 -1099 -17 -1116 0 -7 7 -12 22 -12 35 l0
23 570 0 570 0 0 -23z m-933 -117 c-17 -31 -28 -40 -49 -40 -26 0 -28 3 -28
40 l0 40 49 0 49 0 -21 -40z m693 0 l20 -40 -350 0 -350 0 20 40 20 40 310 0
310 0 20 -40z m110 0 c0 -37 -2 -40 -27 -40 -22 0 -33 9 -50 40 l-21 40 49 0
49 0 0 -40z"/>
<path d="M362 774 c-41 -29 -23 -84 28 -84 32 0 50 17 50 46 0 20 -32 54 -50
54 -3 0 -16 -7 -28 -16z m45 -30 c8 -21 -13 -42 -28 -27 -13 13 -5 43 11 43 6
0 13 -7 17 -16z"/>
<path d="M888 779 c-19 -11 -24 -54 -9 -78 10 -16 58 -18 73 -3 17 17 12 64
-8 79 -21 15 -33 16 -56 2z m50 -42 c4 -20 -25 -34 -40 -19 -15 15 -1 44 19
40 10 -2 19 -11 21 -21z"/>
<path d="M345 1045 c-14 -13 -25 -31 -25 -39 0 -30 23 -65 49 -76 74 -30 136
64 78 118 -31 29 -72 28 -102 -3z m83 -17 c28 -28 7 -78 -33 -78 -27 0 -45 18
-45 45 0 27 18 45 45 45 12 0 26 -5 33 -12z"/>
<path d="M907 992 c-38 -42 -11 -105 43 -105 38 0 60 23 60 63 0 53 -69 80
-103 42z m73 -31 c11 -22 -9 -51 -35 -51 -22 0 -39 38 -24 56 16 20 46 17 59
-5z"/>
</g>
</svg>
